<svg xmlns:dc="http://purl.org/dc/elements/1.1/" xmlns:cc="http://creativecommons.org/ns#" xmlns:rdf="http://www.w3.org/1999/02/22-rdf-syntax-ns#" xmlns:svg="http://www.w3.org/2000/svg" xmlns="http://www.w3.org/2000/svg" xml:space="preserve" id="svg2" version="1.1" viewBox="252 422 340 330" height="320" width="300"><g transform="matrix(1.3333333,0,0,-1.3333333,0,1122.52)" id="g10"><g transform="scale(0.1)" id="g12"><path id="path58" style="fill:#223786;fill-opacity:1;fill-rule:nonzero;stroke:none" d="m 2509.81,3976.13 h -83.12 v -105.25 h 83.12 z m -363.69,-796.17 c 120.01,-158.55 331.12,-122.42 331.12,-122.42 25.57,224.43 -65.28,297.13 -65.28,297.13 -56.38,-119.03 28.89,-262.89 28.89,-262.89 -128.28,118.49 -294.73,88.18 -294.73,88.18 z m 218.99,1231.4 -40.31,37.7 c -97.56,-24.79 -168.49,-111.29 -168.49,-111.29 45.85,109.61 21.06,212.17 0.52,266.62 l -29.35,24.05 c -84.62,-160.49 9.15,-336.53 9.15,-336.53 130.14,31.31 196.16,82.69 228.48,119.45 z m 272.38,-1464.17 c -4.25,69.62 -16.95,120.41 -32.56,161.01 l -80.25,-0.11 c 21.68,-76.16 70.97,-133.6 70.97,-133.6 -146.96,94.47 -305.54,35.74 -305.54,35.74 145.74,-135.35 347.38,-63.04 347.38,-63.04 z m 296.27,938.71 v -40.33 h -43.48 v -47.27 h 38.29 v -40.33 h -38.29 V 3709 h 44.08 v -40.35 h -86.99 v 216.92 l -60.14,-216.92 h -35.15 l -62.77,217.25 h 46.07 l 25.93,-104.34 c 3.76,-12.32 5.18,-24.75 7.74,-37.11 h 0.6 c 2.32,12.68 3.22,25.02 6.63,37.74 l 26.2,103.71 z m 54,-481.74 h -45.8 l -8.07,36.58 h -43.47 l -7.85,-36.58 h -42.62 l 50.47,217.25 h 45.18 z m -45.19,481.74 h 43.24 c 27.33,0 76.27,-2.87 76.27,-62.25 0,-23.9 -9.47,-44.34 -30.78,-56.09 l 37.76,-98.91 h -45.27 l -37.69,100.27 h -0.58 v -100.27 h -42.95 z m 134.95,0 h 42.92 v -217.25 h -42.92 z m -31.79,-485.18 c -12.15,0 -27.11,3.69 -36.89,10.96 v 40.9 c 10.08,-6.9 19.84,-11.6 32.52,-11.6 13.83,0 24.78,9.27 24.78,23.69 0,16.66 -13.31,23.06 -25.35,31.72 -24.78,16.69 -40.06,32.79 -40.06,64.49 0,34.31 19.91,63.96 56.78,63.96 13.79,0 26.19,-3.73 38.03,-10.64 v -41.78 c -8.66,7.46 -19.31,13.79 -31.13,13.79 -13.28,0 -21.63,-8.05 -21.63,-21.25 0,-35.78 65.4,-37.79 65.4,-96.54 0,-38.6 -22.15,-67.7 -62.45,-67.7 z m -213.57,180.33 h -33.98 v -176.89 h -42.94 v 176.89 h -33.73 v 40.36 h 110.65 z m -214.34,555.71 v -914.05 h 452.74 c 51.28,-1.32 103.98,-41.46 103.98,-41.46 v 731.19 c -274.34,5.96 -329.61,224.32 -329.61,224.32 z m 1051.1,472.26 -135.74,-147.69 1.39,-235.93 c 0,0 -4.15,-38.82 -12.45,-58.12 h 87.23 l 249.28,249.28 z M 2512.55,3478.91 h -83.13 v -105.18 h 83.13 z m 135.66,1020.68 174.58,-171.67 v 132.86 l -174.58,174.55 z m -137.6,-1471.23 c 10.9,0 19.73,8.85 19.73,19.73 0,10.91 -8.83,19.74 -19.73,19.74 -10.91,0 -19.75,-8.83 -19.75,-19.74 0,-10.88 8.84,-19.73 19.75,-19.73 z m -316.13,1406.32 c 0,-10.88 8.85,-19.74 19.75,-19.74 10.91,0 19.73,8.86 19.73,19.74 0,10.91 -8.82,19.75 -19.73,19.75 -10.9,0 -19.75,-8.84 -19.75,-19.75 z m 317.27,-1262.42 c 0.8,-8.92 2.44,2.07 2.44,2.07 v 128.34 l -21.2,-23.51 c 12.08,-32.33 16.24,-78.93 18.76,-106.9 z m 311.04,1089.84 v 26.98 l -128.85,128.8 H 2392.08 L 2562.6,4262.1 Z m -654.92,366.63 c 0,0 -11.25,70.29 62.1,175.6 h -247.83 c 0,0 10.54,-28.8 185.73,-175.6 z m -214.81,-386.69 c -44.34,-193.92 119.07,-332.43 119.07,-332.43 188.33,124.69 185.58,241.03 185.58,241.03 -127.41,-33.24 -182.82,-191.13 -182.82,-191.13 8.36,174.51 -121.83,282.53 -121.83,282.53 z m 145.99,-89.79 c 38.45,170.38 -70.93,299.35 -70.93,299.35 -77.37,-183.25 59.55,-348.03 59.55,-348.03 207.11,90.04 224.61,205.1 224.61,205.1 -131.25,-10.61 -213.23,-156.42 -213.23,-156.42 z m 17.42,-81.31 c 0,10.91 -8.83,19.74 -19.73,19.74 -10.91,0 -19.75,-8.83 -19.75,-19.74 0,-10.9 8.84,-19.75 19.75,-19.75 10.9,0 19.73,8.85 19.73,19.75 z m 1009.75,-999.26 h 129.95 c 0,0 8.49,56.46 45.19,56.46 h 539.63 v 949.28 l -53.67,56.54 v -940.78 h -483.14 c 0,0 -64.95,-5.66 -115.84,-67.77 0,0 -39.55,59.26 -124.31,64.9 h -471.77 v 935.14 l -57.93,-57.89 v -939.42 h 526.89 c 0,0 65,-2.73 65,-56.46 z M 2280.6,4816.23 c -135.33,-145.74 -63.03,-347.34 -63.03,-347.34 225.43,13.73 281.16,115.84 281.16,115.84 -126.96,34.94 -253.86,-74.11 -253.86,-74.11 94.47,147.03 35.73,305.61 35.73,305.61 z m 636,-1283.63 -4.89,32.97 h -0.57 l -4.65,-32.97 -9.2,-57.8 h 30.3 z m 1246.71,-408.5 c 32.78,20.37 64.07,48.15 89.94,86.15 0,0 -71.37,9.28 -154.92,-18.9 z m 137.27,861.5 c 0,0 -59.1,156.53 -187.32,186.78 0,0 -0.02,-116.39 191.23,-236.58 0,0 160.11,142.32 111.25,335.15 0,0 -127.6,-111.11 -115.16,-285.35 z m -240.17,-467.22 c 0,0 -74.79,-89.16 -5.59,-304.12 0,0 214.12,6.11 300.59,185.09 0,0 -169.09,-3 -271.66,-144.45 0,0 55.35,157.87 -23.34,263.48 z m 234.98,273.06 c 0,0 -30.98,164.52 -151.98,216.49 0,0 -20.23,-114.65 147.19,-266.17 0,0 182.46,112.3 167.75,310.68 0,0 -144.92,-87.27 -162.96,-261 z m -150.9,49.32 c 0,0 -39.79,-109.37 98.77,-287.71 0,0 199.14,78.88 219.16,276.79 0,0 -157.87,-60.7 -205.78,-228.67 0,0 -2.04,167.32 -112.15,239.59 z m 126.71,-146.85 c 10.91,0 19.74,8.86 19.74,19.74 0,10.92 -8.83,19.75 -19.74,19.75 -10.91,0 -19.73,-8.83 -19.73,-19.75 0,-10.88 8.82,-19.74 19.73,-19.74 z m -115.35,-337.68 c 0,10.9 -8.82,19.73 -19.74,19.73 -10.91,0 -19.74,-8.83 -19.74,-19.73 0,-10.92 8.83,-19.75 19.74,-19.75 10.92,0 19.74,8.83 19.74,19.75 z M 2487.57,4531.85 h 0.21 c -7.9,-6.17 -62.77,-56.27 -146.29,-66.44 l 28.48,-26.74 299.06,1.39 -92.78,92.75 h -0.11 l -46.98,47.11 c 0,0 -33.28,-42.5 -41.59,-48.07 z M 3643.9,3564.12 h -0.56 l -4.61,-32.83 -9.2,-57.93 h 30.17 l -10.95,57.93 z m -623.56,259.22 c 0,15.62 -7.46,28.26 -29.08,27.11 h -5.74 v -57.91 l 7.5,-0.26 c 19.59,0 27.32,13.21 27.32,31.06 z m 424.3,-120.59 c 20.98,0 20.98,15.84 21.31,32 v 149.74 h 42.91 v -158.44 c 0,-23.04 -2.61,-62.18 -64.51,-62.18 -40.08,0 -63.96,18.67 -63.96,59.33 v 161.29 h 42.91 v -140.55 c 0,-16.46 -2,-41.19 21.34,-41.19 z m 110.53,-82.79 v -40.29 h -43.53 v -47.23 h 38.32 v -40.37 h -38.32 v -48.95 h 44.1 v -40.41 h -86.98 v 217.25 z m -11.74,264.53 h 48.34 l 12.42,-30.25 c 3.7,-10.65 8.09,-21.84 10.38,-33.13 h 0.54 c 2.31,11.29 5.8,22.19 9.79,33.13 l 12.95,30.25 h 46.42 l -46.42,-105.12 49.86,-112.05 h -49.86 l -13.77,34.51 c -4.03,11 -6.66,21.63 -9.51,32.56 H 3614 c -3.18,-10.93 -5.78,-21.56 -9.53,-32.56 l -12.7,-34.51 h -48.34 l 46.04,112.05 z m 130.71,-481.78 -8.03,36.7 h -43.52 l -7.77,-36.7 h -42.62 l 50.39,217.25 h 45.24 l 52.18,-217.25 z m -274.85,0 -10.33,156.55 h -0.62 l -6.94,-53.68 -18.4,-102.87 h -33.1 l -21.08,104.1 -7.22,48.36 v 4.09 h -0.53 l -6.39,-156.55 h -46.07 l 18.98,217.25 h 56.53 l 21.03,-128.2 h 0.53 l 17.32,128.2 h 57.62 l 22.77,-217.25 z m -139.26,481.78 h 42.95 V 3707.6 h 44.89 v -40.28 h -87.84 z m -55.07,33.46 v -736.7 c 0,0 41.54,41.46 99.7,41.46 h 457.07 v 914.05 h -246.56 c 0,0 -69.98,-215.59 -310.21,-218.81 z m -583.7,741.6 c 0,0 -19.43,-28.36 -93.5,-44.3 l 93.5,-86.52 z m 392.56,86.23 v 96.93 h 301.9 V 4704.2 h 99.69 v -99.69 h -96.9 v -44.34 h 96.9 v -108 h -96.9 v -324.1 h -83.09 l -115,114.99 -105.16,-105.27 -76.21,76.17 174.49,174.49 90.03,-90.02 v 447.35 z m -155.19,-464.4 c 0,-229.94 144.1,-336.05 321.82,-336.05 177.96,0 322.22,105.76 322.22,336.05 0,230.2 0,655.43 0,655.43 h -643.95 c 0,0 -0.09,-425.72 -0.09,-655.43 z m -275.15,-43.51 76.92,-67.83 h 173.41 c -8.29,13.79 -5.58,66.42 -5.58,66.42 z m 1395.46,-866.52 c 0,0 -13.99,-14.71 -18.64,-37.15 l 41.8,-43.26 c -2.37,27.07 -9.26,54.53 -23.16,80.41 z m -1640.3,-177.21 c 64.13,216.54 -12.71,303.79 -12.71,303.79 -76.23,-107.27 -17.17,-263.81 -17.17,-263.81 -105.82,138.96 -274.99,138.07 -274.99,138.07 90.7,-177.02 304.87,-178.05 304.87,-178.05 z m -10.65,1434.9 c 224.36,-25.55 297,65.29 297,65.29 -118.9,56.49 -262.87,-28.82 -262.87,-28.82 118.55,128.3 88.26,294.74 88.26,294.74 -158.59,-120.04 -122.39,-331.21 -122.39,-331.21 z m 469.67,-1587.09 c 10.59,-131.29 156.43,-213.2 156.43,-213.2 -170.37,38.42 -299.41,-71 -299.41,-71 183.28,-77.3 348.05,59.53 348.05,59.53 -90.06,207.13 -205.07,224.67 -205.07,224.67 z m -571.8,310.76 c 100.77,202.04 40.27,301.43 40.27,301.43 -93.78,-92.46 -62.76,-256.89 -62.76,-256.89 -80.08,155.27 -246.84,183.71 -246.84,183.71 58.61,-190.04 269.33,-228.25 269.33,-228.25 z m 452.8,-245.07 -28.02,0.19 c -1.6,-124.04 117.9,-221.91 117.9,-221.91 -161.15,67.48 -307.16,-17.83 -307.16,-17.83 167.05,-108.03 353.02,-1.8 353.02,-1.8 -36.19,150.9 -99.63,215.62 -135.74,241.35 z m -415.87,-93.66 c 0,0 30.79,18.27 75.39,24.87 l -49.48,11.74 -4.75,-6.24 c 2.76,3.89 4.75,6.24 4.75,6.24 l -219.29,-230.81 c 0,0 -24.97,-35.99 -1.41,-59.59 0,0 22.13,-18.02 52.62,2.74 l 213.64,186.8 c -21.68,11.17 -68.84,50.48 -71.47,64.25 z m -120.48,514.46 c 134.38,181.54 91.96,289.88 91.96,289.88 -108.32,-74.84 -106.39,-242.11 -106.39,-242.11 -51.89,166.8 -211.17,223.81 -211.17,223.81 24.73,-197.4 225.6,-271.58 225.6,-271.58 z m 112.61,1299.37 -259.63,259.71 c 0,0 -108.63,-77.87 -24.25,-259.71 z m 117.43,94.51 -152.69,154.14 c -94.53,94.52 -206.67,32.17 -206.67,32.17 l 300.81,-299.49 c 20.08,76.85 58.55,113.18 58.55,113.18 z m -281.3,-1233.75 c 0,-10.9 8.84,-19.74 19.75,-19.74 10.89,0 19.72,8.84 19.72,19.74 0,10.9 -8.83,19.75 -19.72,19.75 -10.91,0 -19.75,-8.85 -19.75,-19.75 z m -0.49,27.37 c 163.83,155.5 140.88,269.55 140.88,269.55 -119.68,-54.83 -146.82,-219.94 -146.82,-219.94 -22.09,173.24 -169.08,257.07 -169.08,257.07 -9.93,-198.7 175.02,-306.68 175.02,-306.68 z m 143.83,-382.39 c 0,-10.91 8.84,-19.74 19.76,-19.74 10.89,0 19.73,8.83 19.73,19.74 0,10.9 -8.84,19.75 -19.73,19.75 -10.92,0 -19.76,-8.85 -19.76,-19.75 z m 1651.82,-288.1 c 10.91,0 19.74,8.85 19.74,19.74 0,10.92 -8.83,19.75 -19.74,19.75 -10.89,0 -19.74,-8.83 -19.74,-19.75 0,-10.89 8.85,-19.74 19.74,-19.74 z m 104.88,25.6 -69.4,56.6 c 1.47,-17.65 3.73,-36.38 7.04,-56.32 0,0 25.01,-2.97 62.36,-0.28 z m 194.26,349.44 c 0,0 27.11,165.11 -68.77,255.33 0,0 -58.24,-100.72 47.24,-300.41 0,0 209.85,43.14 263.93,234.53 0,0 -166.04,-32.38 -242.4,-189.45 z M 2868.8,2869.55 c 0,10.92 -8.82,19.75 -19.72,19.75 -10.91,0 -19.75,-8.83 -19.75,-19.75 0,-10.9 8.84,-19.75 19.75,-19.75 10.9,0 19.72,8.85 19.72,19.75 z m 934.24,119.14 c 0,0 42.78,51.15 63.89,123.3 l -80.31,1.29 c -12.7,-39.37 -22.37,-89.47 -24.73,-152.93 0,0 173.46,-57.66 312.29,42.91 l -53.46,43.03 c -59.28,3.26 -140.61,-5.49 -217.68,-57.6 z m 58.38,319.9 v -105.21 l 470.88,-390.55 h 94.16 l -479.26,495.76 z m -689.66,-454.18 v -49.26 c -22.73,35.84 -111.49,165.61 -211.7,172 0,0 34.05,-116.04 184.12,-184.14 0,0 -188.21,-12.5 -265.05,-115.53 0,0 164.12,-14.81 292.63,112.91 v -80.08 h 49.88 v 85.86 58.24 z m 83.08,-60.97 c 149.55,69.23 182.79,185.56 182.79,185.56 -116.33,-8.3 -215.99,-182.83 -215.99,-182.83 130.13,-132.91 299.06,-116.31 299.06,-116.31 -77.52,102.5 -265.86,113.58 -265.86,113.58 z m 193.28,41.09 c 0,0 143.89,85.35 151.41,216.8 0,0 -114.63,-20.2 -199.75,-229.4 0,0 167.87,-132.91 349.32,-51.36 0,0 -131.51,106.38 -300.98,63.96 z m 184.2,61.56 c 0,0 111.68,96 112.75,215.8 l -39.94,-1.52 c -36.11,-31.66 -88.9,-98.98 -118.3,-235.06 0,0 188.56,-101.82 352.95,9.96 0,0 -148.01,82.05 -307.46,10.82 z m -99.02,-18.94 c 0,-10.88 8.83,-19.73 19.73,-19.73 10.92,0 19.75,8.85 19.75,19.73 0,10.92 -8.83,19.74 -19.75,19.74 -10.9,0 -19.73,-8.82 -19.73,-19.74 z m 697.67,1439.33 c 0,0 101.88,188.44 -10.02,352.95 0,0 -81.91,-147.99 -10.64,-307.56 0,0 -109.06,126.88 -239.81,111.49 0,0 39.75,-109.36 260.47,-156.88 z m -478.96,440.59 59.72,61.84 c -50.88,11.77 -146.52,28.73 -223.75,-28.87 0,0 39.73,-45.06 164.03,-32.97 z m 397.51,-319.65 c 10.9,0 19.75,8.85 19.75,19.75 0,10.9 -8.85,19.74 -19.75,19.74 -10.91,0 -19.73,-8.84 -19.73,-19.74 0,-10.9 8.82,-19.75 19.73,-19.75 z m 134.91,-308.07 c 0,0 132.99,167.95 51.35,349.38 0,0 -106.35,-131.57 -63.93,-301.06 0,0 -85.31,143.91 -216.84,151.46 0,0 20.26,-114.6 229.42,-199.78 z m -287.36,945.77 c 62.14,-30.88 112.3,1.52 112.3,1.52 69.32,33.96 119.43,-13.16 119.43,-13.16 48.32,-37.76 40.39,-87.49 40.39,-87.49 0,-38.06 -10.95,-40.7 -10.95,-40.7 -23.01,-15.84 -17.31,10.94 -17.31,10.94 0.73,0.33 5.28,18.81 5.28,18.81 9.04,85.95 -68.15,98.38 -68.15,98.38 -81.85,14.31 -102.28,-61.39 -102.28,-61.39 -5.2,-20.78 -5.63,-39.34 -3.32,-55.62 l -102.31,102.28 4.83,-86.52 228.49,-228.48 h 81.72 l -82.97,82.95 c 43.87,-13.75 82.29,-15.18 82.29,-15.18 116.66,7.15 128.88,118.71 128.88,118.71 30.77,116.63 -79.76,210.79 -79.76,210.79 -73.67,63.39 -185.22,68.53 -185.22,68.53 -158.59,18.38 -214.88,119.73 -214.88,119.73 -18.63,-46.14 -13.77,-114.42 -13.77,-114.42 10.55,-105.13 77.31,-129.68 77.31,-129.68 z m 259.3,-978.09 c 0,-10.92 8.82,-19.75 19.74,-19.75 10.91,0 19.74,8.83 19.74,19.75 0,10.92 -8.83,19.75 -19.74,19.75 -10.92,0 -19.74,-8.83 -19.74,-19.75 z m -432.9,737.03 48.22,48.95 c -20.43,69.06 -61.99,152.38 -164.74,202.01 0,0 -4.22,-147.77 116.52,-250.96 z m 121.11,-1364.8 h -83.16 V 3364 h 83.16 z m 64.58,1042.72 c 36.68,-10.42 81.72,-18.19 136.85,-20.48 0,0 25.01,74.49 14.09,165 l -71.95,-68.89 c 7.8,-18.3 17.6,-36.7 29.78,-54.88 0,0 -19.87,16.37 -51.58,34.01 z m -1578.57,224.67 c 0,-10.89 8.84,-19.74 19.75,-19.74 10.9,0 19.73,8.85 19.73,19.74 0,10.91 -8.83,19.74 -19.73,19.74 -10.91,0 -19.75,-8.83 -19.75,-19.74 z m 1738.23,-23.74 -213.26,213.22 -191.11,-207.67 205.02,-202.21 z m -452.85,-6.95 -42.91,-51.27 232.7,-232.66 47.07,47.09 z m 224.4,-721.53 h -83.09 V 3879.2 h 83.09 z m -995.46,1004.98 c 0,0 65.38,-43.24 180.2,35.94 0,0 -142.19,58.4 -180.2,-35.94 z m 740.93,-74.53 c 0,0 -64.61,19.61 -146.14,-8.22 l -0.21,-74.38 c 49.7,0.96 100.17,12.93 191.46,61.18 0,0 -43.2,209.76 -234.55,263.8 0,0 32.36,-165.99 189.44,-242.38 z m -857.61,-92.62 1.53,72.39 c -80.57,23.65 -162.09,8.32 -162.09,8.32 155.23,80.04 183.67,246.78 183.67,246.78 -190.04,-58.54 -228.28,-269.28 -228.28,-269.28 87.65,-43.69 155.95,-57.05 205.17,-58.21 z m -59.81,-41.89 c -107.37,76.31 -263.92,17.23 -263.92,17.23 139.01,105.8 138.1,274.96 138.1,274.96 -177.02,-90.69 -178.11,-304.91 -178.11,-304.91 216.55,-64.17 303.93,12.72 303.93,12.72 z m -12.21,158.88 c 0,-10.9 8.84,-19.74 19.75,-19.74 10.9,0 19.73,8.84 19.73,19.74 0,10.9 -8.83,19.74 -19.73,19.74 -10.91,0 -19.75,-8.84 -19.75,-19.74 z m 47.8,20.81 148.96,2.11 c -46.29,27.87 -96.96,26.87 -96.96,26.87 166.81,51.92 214.33,200.55 214.33,200.55 -197.3,-24.69 -271.54,-225.65 -271.54,-225.65 2.62,-1.91 2.67,-1.95 5.21,-3.88 z m 795.33,-10.05 c 0,10.91 -8.83,19.74 -19.74,19.74 -10.9,0 -19.73,-8.83 -19.73,-19.74 0,-10.9 8.83,-19.74 19.73,-19.74 10.91,0 19.74,8.84 19.74,19.74 z m -104.56,39.03 c 0,0 -50.72,1 -96.93,-26.87 l 148.86,-2.11 c 2.64,1.93 2.7,1.97 5.3,3.88 0,0 -74.22,200.96 -271.59,225.65 0,0 47.6,-148.63 214.36,-200.55 z m -320.24,22.85 c 14.58,0 26.38,11.86 26.38,26.47 0,14.57 -11.8,26.41 -26.38,26.41 -14.63,0 -26.49,-11.84 -26.49,-26.41 0,-14.61 11.86,-26.47 26.49,-26.47 z m 231.26,-13.75 c -41.59,92.84 -181.43,29.12 -181.43,29.12 117.7,-74.82 181.43,-29.12 181.43,-29.12"/></g></g></svg>